<svg width="32" height="32" viewBox="0 0 32 32" fill="none" xmlns="http://www.w3.org/2000/svg">
<path d="M31.5237 6.58277C30.4103 7.0761 29.2143 7.40943 27.957 7.5601C29.2397 6.7921 30.2237 5.57343 30.6877 4.12277C29.4877 4.83477 28.1583 5.3521 26.7437 5.62943C25.6103 4.4241 23.997 3.66943 22.2103 3.66943C18.781 3.66943 15.9997 6.45077 15.9997 9.88277C15.9997 10.3681 16.0557 10.8401 16.1597 11.2961C10.9957 11.0361 6.42102 8.56277 3.35702 4.80543C2.82369 5.72543 2.51702 6.7921 2.51702 7.9281C2.51702 10.0828 3.61436 11.9854 5.27969 13.0988C4.26102 13.0654 3.30369 12.7868 2.46635 12.3214V12.4014C2.46635 15.4108 4.60635 17.9214 7.44902 18.4921C6.92636 18.6334 6.37836 18.7081 5.81302 18.7081C5.41302 18.7081 5.02236 18.6708 4.64369 18.5988C5.43436 21.0654 7.72769 22.8628 10.4464 22.9108C8.31969 24.5774 5.64102 25.5708 2.73169 25.5708C2.23035 25.5708 1.73569 25.5414 1.24902 25.4841C3.99835 27.2481 7.26236 28.2748 10.769 28.2748C22.1957 28.2748 28.4424 18.8108 28.4424 10.6028C28.4424 10.3361 28.4357 10.0668 28.4237 9.8001C29.637 8.92277 30.6904 7.83077 31.521 6.58677L31.5237 6.58277Z" fill="#57ADEA"/>
</svg>
